<?xml version="1.0" ?><!DOCTYPE svg  PUBLIC '-//W3C//DTD SVG 1.1//EN'  'http://www.w3.org/Graphics/SVG/1.1/DTD/svg11.dtd'><svg height="512px" style="enable-background:new 0 0 512 512;" version="1.1" viewBox="0 0 512 512" width="512px" xml:space="preserve" xmlns="http://www.w3.org/2000/svg" xmlns:xlink="http://www.w3.org/1999/xlink"><g id="_x32_3_x2C__Photoshop_x2C__Adobe"><g><path d="M0,0v512h512V0H0z M489.471,489.475H22.525V22.529h466.945V489.475z"/><g><g><g id="XMLID_1346_"><g><path d="M124.415,123.684c0-1.765,0.303-2.466,1.816-2.466c11.512-0.354,34.239-0.705,57.265-0.705        c59.38,0,82.03,34.552,82.333,75.415c0,56.004-41.739,77.24-86.273,77.24c-8.483,0-16.663,0-18.787,0v80.017        c0,2.116-0.603,2.821-2.12,2.821h-32.115c-1.513,0-2.12-0.705-2.12-2.467V123.684z M160.769,239        c2.428,0.351,6.97,0.701,19.697,0.701c23.931,0,46.957-6.821,46.957-42.047c0-28.18-15.449-42.654-43.927-42.654        c-11.816,0-20.299,0.351-22.727,0.705V239z" id="XMLID_108_"/></g></g><g id="XMLID_1340_"><g><path d="M341.448,212.671c-14.589,0-18.456,9.123-18.456,15.816c0,8.457,3.867,13.035,26.195,23.603        c30.663,14.795,43.762,27.828,43.762,53.188c0,35.227-22.924,55.269-55.672,55.269c-15.777,0-35.683-1.503-48.188-10.663        c-1.193-0.704-1.786-1.76-1.786-3.524v-32.406c0-1.761,1.192-2.466,2.085-1.761c15.479,11.624,32.744,14.928,48.223,14.928        c13.697,0,18.457-9.129,18.457-16.877c0-9.157-3.308-14.444-24.743-24.657c-30.663-14.795-43.429-27.509-43.429-53.223        c0-28.534,21.398-52.103,56.527-52.103c18.157,0,30.957,0.487,39.294,6.12c1.487,1.411,1.786,2.465,1.786,4.582v28.883        c0,2.112-1.192,3.171-2.679,2.112C372.106,214.915,356.927,212.671,341.448,212.671z" id="XMLID_66_"/></g></g></g></g></g></g><g id="Layer_1"/></svg>