<?xml version="1.0" ?><svg enable-background="new 0 0 32 32" version="1.1" viewBox="0 0 32 32" xml:space="preserve" xmlns="http://www.w3.org/2000/svg" xmlns:xlink="http://www.w3.org/1999/xlink"><g id="_x33_0"/><g id="_x32_9"/><g id="_x32_8"/><g id="_x32_7"/><g id="_x32_6"/><g id="_x32_5"/><g id="_x32_4"/><g id="_x32_3"/><g id="_x32_2"/><g id="_x32_1"/><g id="_x32_0"/><g id="_x31_8"/><g id="_x31_7"/><g id="_x31_6"/><g id="_x31_5"/><g id="_x31_4"/><g id="_x31_3"><path d="M28,12.378v10.386c0,1.047-0.532,2.001-1.423,2.552c-0.485,0.3-1.029,0.451-1.575,0.451c-0.458,0-0.917-0.106-1.344-0.319   l-1.105-0.553c-0.494-0.247-0.694-0.848-0.447-1.342s0.847-0.695,1.342-0.447l1.105,0.553c0.451,0.226,0.83,0.044,0.973-0.043   C25.668,23.526,26,23.267,26,22.764V12.378c0-0.412-0.259-0.788-0.644-0.935l-17-6.476C8.044,4.849,7.708,4.889,7.433,5.079   C7.158,5.269,7,5.568,7,5.902V15c0,0.552-0.448,1-1,1s-1-0.448-1-1V5.902c0-0.987,0.485-1.91,1.297-2.47   c0.813-0.56,1.849-0.685,2.771-0.333l17,6.476C27.224,10.015,28,11.142,28,12.378z M18,11.5c-0.829,0-1.5,0.671-1.5,1.5v15   c0,0.829,0.671,1.5,1.5,1.5s1.5-0.671,1.5-1.5V13C19.5,12.171,18.829,11.5,18,11.5z M14,13.5c-0.829,0-1.5,0.671-1.5,1.5v11   c0,0.829,0.671,1.5,1.5,1.5s1.5-0.671,1.5-1.5V15C15.5,14.171,14.829,13.5,14,13.5z M10,15.5c-0.829,0-1.5,0.671-1.5,1.5v7   c0,0.829,0.671,1.5,1.5,1.5s1.5-0.671,1.5-1.5v-7C11.5,16.171,10.829,15.5,10,15.5z M6,17.5c-0.829,0-1.5,0.671-1.5,1.5v3   c0,0.829,0.671,1.5,1.5,1.5s1.5-0.671,1.5-1.5v-3C7.5,18.171,6.829,17.5,6,17.5z"/></g><g id="_x31_2"/><g id="_x31_1"/><g id="_x31_0"/><g id="_x39_"/><g id="_x38_"/><g id="_x37_"/><g id="_x36_"/><g id="_x35_"/><g id="_x34_"/><g id="_x33_"/><g id="_x32_"/><g id="_x31_"/><g id="Guides"/></svg>