<?xml version="1.0" ?><svg id="Camada_1" style="enable-background:new 0 0 32 32;" version="1.1" viewBox="0 0 32 32" xml:space="preserve" xmlns="http://www.w3.org/2000/svg" xmlns:xlink="http://www.w3.org/1999/xlink"><style type="text/css">
	.st0{fill:#FFFFFF;}
</style><path d="M6,2h20c2.2,0,4,1.8,4,4v20c0,2.2-1.8,4-4,4H6c-2.2,0-4-1.8-4-4V6C2,3.8,3.8,2,6,2z"/><g><path class="st0" d="M25,16.8c0,1.5,0,3.1,0,4.6c0,0.6-0.2,1-0.6,1.4c-0.7,0.8-1.7,0.9-2.7,0.5c-0.3-0.1-0.5-0.3-0.8-0.4   c-0.3-0.2-0.3-0.5-0.2-0.8c0.2-0.2,0.5-0.3,0.8-0.2c0.3,0.2,0.7,0.3,1.1,0.3c0.5,0,1-0.4,1.2-0.8c0-0.1,0.1-0.2,0.1-0.3   c0-1.7,0-3.4,0-5.1c0-1.3,0-2.5,0-3.8c0-0.5-0.2-0.8-0.7-1c-3.7-1.1-7.3-2.3-11-3.4c-0.6-0.2-1.2-0.4-1.9-0.6   c-0.1,0-0.3-0.1-0.4-0.1c-0.6-0.1-1.1,0.3-1.1,1c0,2.1,0,4.1,0,6.2c0,0.1,0,0.2-0.1,0.2c-0.3,0.4-0.9,0.4-1.2,0   c0-0.1-0.1-0.1-0.1-0.2c0-2.2,0-4.4,0-6.6C7.4,7,8,6.2,9,6C9.4,6,9.8,6,10.1,6.2c0.5,0.2,1,0.3,1.5,0.5c2.3,0.7,4.7,1.4,7,2.1   c1.7,0.5,3.3,1,5,1.5c0.5,0.1,0.9,0.5,1.1,1c0.2,0.4,0.2,0.8,0.2,1.2c0,0,0,0.1,0,0.1C25,13.9,25,15.3,25,16.8L25,16.8z"/><path class="st0" d="M17.2,18.6c0-1.9,0-3.8,0-5.8c0-0.5,0.3-0.8,0.8-0.8c0.3,0,0.6,0,0.9,0c0.5,0,0.8,0.3,0.8,0.8   c0,3.9,0,7.7,0,11.6c0,0.5-0.3,0.8-0.8,0.8c-0.3,0-0.6,0-0.9,0c-0.5,0-0.8-0.3-0.8-0.8C17.2,22.5,17.2,20.6,17.2,18.6L17.2,18.6z"/><path class="st0" d="M13.8,19c0-1.4,0-2.8,0-4.2c0-0.5,0.3-0.8,0.8-0.8c0.2,0,0.5,0,0.7,0c0.4,0,0.8,0.3,0.8,0.8c0,2,0,4.1,0,6.1   c0,0.8,0,1.6,0,2.3c0,0.5-0.4,0.8-0.8,0.8c-0.3,0-0.5,0-0.8,0c-0.4,0-0.7-0.3-0.7-0.7C13.8,21.8,13.8,20.4,13.8,19L13.8,19z"/><path class="st0" d="M12.7,18.9c0,1.1,0,2.1,0,3.2c0,0.5-0.3,0.8-0.8,0.8c-0.2,0-0.5,0-0.7,0c-0.4,0-0.8-0.3-0.8-0.8   c0-0.1,0-0.2,0-0.3c0-2,0-4.1,0-6.1c0-0.4,0.2-0.7,0.6-0.8c0.1,0,0.1,0,0.2,0c0.2,0,0.5,0,0.7,0c0.5,0,0.8,0.3,0.8,0.8   C12.7,16.8,12.7,17.9,12.7,18.9z"/><path class="st0" d="M9.3,18.9c0,0.7,0,1.4,0,2.1c0,0.4-0.3,0.7-0.7,0.8c-0.3,0-0.5,0-0.8,0C7.3,21.8,7,21.4,7,21   c0-1.4,0-2.8,0-4.2c0-0.4,0.3-0.7,0.7-0.7c0.3,0,0.5,0,0.8,0c0.4,0,0.7,0.3,0.7,0.7C9.3,17.5,9.3,18.2,9.3,18.9L9.3,18.9z"/></g></svg>